<svg xmlns:mydata="http://www.w3.org/2000/svg" mydata:contrastcolor="ffffff"
    mydata:template="Contrast" mydata:presentation="2.5" mydata:layouttype="undefined"
    mydata:specialfontid="undefined" mydata:id1="232" mydata:id2="127"
    mydata:companyname="aws infos" mydata:companytagline="EC2 SSH File Generator" version="1.1"
    xmlns="http://www.w3.org/2000/svg" xmlns:xlink="http://www.w3.org/1999/xlink"
    viewBox="0 45 550 380">
    <g fill="#f93822" fill-rule="none" stroke="none" stroke-width="1" stroke-linecap="butt"
        stroke-linejoin="miter" stroke-miterlimit="10" stroke-dasharray="" stroke-dashoffset="0"
        font-family="none" font-weight="none" font-size="none" text-anchor="none"
        style="mix-blend-mode: normal">
        <g
            data-paper-data="{&quot;isGlobalGroup&quot;:true,&quot;bounds&quot;:{&quot;x&quot;:120.93818524720618,&quot;y&quot;:106,&quot;width&quot;:308.1236295055876,&quot;height&quot;:258}}">
            <g fill-rule="evenodd">
                <path
                    d="M120.93819,245.545l26.59177,18.12203c84.29253,-15.28885 170.64824,-15.28885 254.94048,0l26.59138,-18.12203l-18.40545,-27.00862c-89.70537,-16.27068 -181.60668,-16.27068 -271.31215,0zM296.30924,247.40425l-16.41102,-24.12966l-0.34828,22.01817l-3.07637,-0.0487l0.50255,-31.77477l16.41102,24.12976l0.3476,-21.97444l3.07647,0.0487zM270.27193,245.25964l-0.25965,-29.88777l-3.07676,0.02678l0.25975,29.88825zM246.39004,234.84485c-1.43435,-1.05951 -4.10722,-1.95982 -8.01861,-2.70092c-6.15761,-1.11857 -9.3268,-3.58379 -9.50757,-7.39568c-0.13304,-2.80387 0.74759,-4.94818 2.64161,-6.43285c1.89411,-1.48477 4.16543,-2.29089 6.81415,-2.41848c5.80417,-0.27952 9.35612,1.72026 10.65574,5.99954l-3.32424,0.16012c-0.71993,-2.54694 -3.12147,-3.72209 -7.2046,-3.52545c-2.88285,0.13888 -4.85585,1.091 -5.9189,2.85646c-0.4047,0.65221 -0.58138,1.46688 -0.53002,2.444c0.08006,1.82798 1.14311,3.19597 3.18906,4.10407c0.96381,0.45346 2.98492,1.00072 6.06343,1.64186c3.07855,0.64111 5.32678,1.41373 6.7447,2.31787c1.97154,1.25024 3.01833,3.09721 3.14036,5.54092c0.14015,3.00031 -0.93819,5.32714 -3.23522,6.97991c-1.92732,1.39662 -4.35593,2.16506 -7.28563,2.30628c-6.61196,0.31848 -10.56604,-2.0141 -11.86215,-6.99793l3.63327,-0.17502c0.71552,3.13406 3.41417,4.58844 8.09594,4.36314c3.33787,-0.16167 5.62614,-1.20184 6.86469,-3.12176c0.48132,-0.74438 0.69208,-1.73857 0.63218,-2.98249c-0.0599,-1.24391 -0.58933,-2.23177 -1.5882,-2.96359zM321.47108,219.65758l0.14317,-2.85344l-17.73518,-0.89252l-1.5021,29.85154l3.07287,0.15388l0.67825,-13.47645l14.22298,0.71575l0.14609,-2.89736l-14.22327,-0.71575l0.53459,-10.6235zM220.97712,249.81863l4.04865,-32.79555l-3.10841,0.27718l-2.71269,22.04135l-11.01549,-22.58266l-6.89085,24.17904l-6.52506,-21.21788l-3.15224,0.28098l9.82988,31.55797l7.45252,-26.78821zM353.60708,228.43353c0.63988,1.93833 0.86778,3.95847 0.68468,6.06022c-0.18407,2.10185 -0.7587,4.05187 -1.72387,5.85014c-0.96614,1.79808 -2.20304,3.32986 -3.7107,4.59532c-1.50765,1.26612 -3.23055,2.21895 -5.16868,2.8585c-1.93813,0.63988 -3.95808,0.86778 -6.05983,0.68468c-2.10175,-0.1831 -4.04476,-0.75772 -5.82901,-1.72192c-1.78328,-0.9642 -3.30749,-2.2011 -4.5736,-3.70875c-1.26514,-1.50668 -2.21863,-3.23016 -2.85753,-5.16848c-0.63988,-1.93833 -0.86875,-3.95837 -0.68468,-6.06022c0.1831,-2.10185 0.75772,-4.05187 1.72387,-5.85014c0.96517,-1.79818 2.20207,-3.32288 3.70778,-4.5739c1.50668,-1.25102 3.22178,-2.19701 5.14531,-2.83805c1.92352,-0.64104 3.93665,-0.86982 6.0384,-0.68643c2.10175,0.18339 4.05157,0.75801 5.85044,1.72377c1.79789,0.96585 3.33086,2.19525 4.59698,3.6882c1.26709,1.49304 2.22057,3.20873 2.86045,5.14706zM195.90342,249.59171l-17.07301,-30.01944l-8.95281,33.37173l3.31314,-0.42658l2.15571,-8.47617l13.02494,-1.67809l4.2188,7.65611zM346.87913,242.58326c2.60236,-2.18512 4.05157,-4.97068 4.34765,-8.35696c0.29218,-3.35706 -0.65351,-6.33692 -2.83805,-8.93957c-2.18551,-2.60255 -4.97097,-4.05167 -8.35735,-4.34707c-3.35716,-0.29296 -6.33643,0.65302 -8.93879,2.83786c-2.60301,2.18486 -4.05093,4.95584 -4.34376,8.31294c-0.2951,3.38628 0.64962,6.38074 2.83415,8.9833c2.18486,2.60294 4.95571,4.05083 8.31255,4.34366c3.38638,0.2951 6.38123,-0.64962 8.98359,-2.83415zM367.60546,237.08627c3.72044,1.41503 6.19423,2.76978 7.42042,4.06414c0.85609,0.89524 1.20379,1.96073 1.04503,3.19568c-0.15973,1.23593 -0.54053,2.17772 -1.14535,2.82636c-1.55538,1.67322 -3.99119,2.29654 -7.3055,1.86996c-4.6486,-0.59897 -7.05032,-2.50302 -7.20615,-5.71408l-3.60746,-0.46457c0.40256,5.13394 3.88665,8.12328 10.45228,8.96801c2.90915,0.37497 5.43456,0.04383 7.57722,-0.99341c2.55074,-1.22521 4.02041,-3.32697 4.40804,-6.30526c0.30776,-2.42705 -0.39931,-4.42888 -2.12123,-6.00529c-1.2369,-1.13863 -3.31528,-2.29323 -6.23417,-3.4638c-2.91791,-1.17067 -4.81222,-2.06358 -5.68194,-2.67901c-1.85535,-1.25248 -2.66177,-2.78556 -2.42023,-4.59922c0.12077,-0.97111 0.4373,-1.74218 0.94959,-2.31339c1.35637,-1.55187 3.46591,-2.14357 6.32864,-1.7751c4.05352,0.52184 6.21274,2.09961 6.47473,4.73333l3.30067,0.42483c-0.52917,-4.44082 -3.67564,-7.03211 -9.43939,-7.77386c-2.62963,-0.33854 -5.00701,0.05717 -7.13214,1.18703c-2.12513,1.12986 -3.36787,3.0867 -3.72823,5.8705c-0.48989,3.78452 2.19817,6.76691 8.06517,8.94716zM176.10388,241.06285l3.64729,-14.34111l7.13788,12.95199z"></path>
            </g>
            <g data-paper-data="{&quot;isSecondaryText&quot;:true}" fill-rule="nonzero">
                <path
                    d="M179.98924,276.81845l-9.96079,4.70898l2.40696,5.09138l0.37457,-0.17708l-2.22988,-4.71681l4.43935,-2.09871l1.79374,3.79426l0.36763,-0.1738l-1.79374,-3.79426l4.40467,-2.08231l2.22988,4.71681l0.37457,-0.17708z"
                    data-paper-data="{&quot;glyphName&quot;:&quot;E&quot;,&quot;glyphIndex&quot;:0,&quot;firstGlyphOfWord&quot;:true,&quot;word&quot;:1}"></path>
                <path
                    d="M178.54446,296.64533c-0.75516,-1.22296 -0.96575,-2.53271 -0.63177,-3.92923c0.32694,-1.39819 1.10189,-2.47486 2.32486,-3.23002c1.21861,-0.75247 2.52836,-0.96306 3.92923,-0.63177c1.39819,0.32694 2.47486,1.10189 3.23002,2.32486c0.38699,0.62671 0.62946,1.30659 0.72741,2.03964l0.38517,-0.23783c-0.12241,-0.72396 -0.37576,-1.39712 -0.76006,-2.01948c-0.81428,-1.31871 -1.97683,-2.15486 -3.48766,-2.50843c-1.50916,-0.36062 -2.92309,-0.13378 -4.24181,0.6805c-1.31871,0.81428 -2.15486,1.97683 -2.50843,3.48766c-0.36062,1.50916 -0.13378,2.92309 0.6805,4.24181c0.3843,0.62236 0.87267,1.1504 1.46511,1.58413l0.37864,-0.2338c-0.60716,-0.41862 -1.10424,-0.94129 -1.49122,-1.568z"
                    data-paper-data="{&quot;glyphName&quot;:&quot;C&quot;,&quot;glyphIndex&quot;:1,&quot;word&quot;:1}"></path>
                <path
                    d="M185.69359,307.16955l-2.71613,-3.49594l0.35062,-0.04894c2.92879,-0.39056 4.89703,-0.67934 5.90473,-0.86633c1.58288,-0.29705 2.59244,-0.61504 3.02868,-0.95397c0.51702,-0.40169 0.82188,-0.88469 0.9146,-1.44901c0.09181,-0.55714 -0.05058,-1.07806 -0.42716,-1.56276c-0.25106,-0.32314 -0.58382,-0.54717 -0.99827,-0.67211c-0.4185,-0.12179 -0.84872,-0.12112 -1.29068,0.00202l-0.10813,-0.40179c0.52451,-0.14194 1.03257,-0.13831 1.52418,0.01089c0.49565,0.14606 0.89567,0.41499 1.20008,0.8068c0.44249,0.56953 0.61017,1.19387 0.50304,1.87302c-0.10309,0.67601 -0.45757,1.24939 -1.06345,1.72012c-0.46855,0.36403 -1.45748,0.6919 -2.96678,0.98361c-1.01668,0.20045 -2.95217,0.48969 -5.80648,0.86773l2.27834,2.93247z"
                    data-paper-data="{&quot;glyphName&quot;:&quot;2&quot;,&quot;glyphIndex&quot;:2,&quot;lastGlyphOfWord&quot;:true,&quot;word&quot;:1}"></path>
                <path
                    d="M198.67121,320.85363c-0.04971,-0.04417 -0.09771,-0.09025 -0.14402,-0.13824c-0.4958,-0.48162 -0.851,-1.03676 -1.06561,-1.6654c-0.24139,-0.71402 -0.24256,-1.3788 -0.0035,-1.99435l0.3836,0.14585c-0.21103,0.53781 -0.20563,1.12082 0.01621,1.74903c0.19549,0.55006 0.51245,1.04042 0.95089,1.47108c0.66063,0.63494 1.39067,0.97232 2.19012,1.01212c0.73785,0.03981 1.33039,-0.17267 1.77761,-0.63745c0.82989,-0.85691 0.66231,-2.19304 -0.50272,-4.00837c-0.6301,-0.97732 -0.98578,-1.84764 -1.06704,-2.61096c-0.07786,-0.76714 0.12063,-1.39479 0.59546,-1.88294c0.69695,-0.71502 1.50144,-0.98891 2.41348,-0.82169c0.75061,0.13326 1.46239,0.52968 2.13535,1.18926c0.80678,0.7785 1.22278,1.65794 1.248,2.63833l-0.41798,0.00835c-0.0184,-0.86485 -0.38893,-1.64915 -1.1116,-2.3529c-0.61858,-0.59757 -1.25941,-0.95832 -1.92252,-1.08225c-0.7727,-0.13921 -1.45443,0.09665 -2.04521,0.70758c-0.81969,0.84544 -0.64702,2.17583 0.51801,3.99116c0.6301,0.97732 0.98408,1.84955 1.06194,2.6167c0.07786,0.76714 -0.12403,1.39861 -0.60565,1.89441c-0.53641,0.54975 -1.23705,0.80303 -2.10191,0.75984c-0.83937,-0.04107 -1.60701,-0.37079 -2.30289,-0.98916z"
                    data-paper-data="{&quot;glyphName&quot;:&quot;S&quot;,&quot;glyphIndex&quot;:3,&quot;firstGlyphOfWord&quot;:true,&quot;word&quot;:2}"></path>
                <path
                    d="M208.79189,328.87776c-0.05435,-0.03832 -0.10722,-0.07872 -0.15862,-0.12122c-0.54667,-0.42299 -0.96188,-0.9348 -1.24563,-1.53541c-0.31993,-0.68245 -0.39563,-1.34291 -0.2271,-1.98138l0.39754,0.10192c-0.1494,0.55808 -0.07866,1.13681 0.21222,1.73619c0.25593,0.52467 0.62588,0.9764 1.10984,1.35518c0.72766,0.55686 1.49093,0.81025 2.28979,0.76016c0.73766,-0.04317 1.30264,-0.32076 1.69492,-0.83275c0.72857,-0.94456 0.41223,-2.25347 -0.949,-3.92672c-0.73572,-0.90051 -1.18674,-1.72546 -1.35307,-2.47485c-0.16338,-0.75357 -0.03653,-1.39952 0.38057,-1.93783c0.61238,-0.78866 1.38109,-1.15103 2.30612,-1.08713c0.76082,0.04826 1.51256,0.36237 2.25523,0.94233c0.88899,0.68312 1.40097,1.51038 1.53596,2.48176l-0.41441,0.05516c-0.11526,-0.85733 -0.5714,-1.59514 -1.36841,-2.21342c-0.68168,-0.52444 -1.35893,-0.81106 -2.03174,-0.85986c-0.78343,-0.05169 -1.43443,0.25913 -1.95297,0.93245c-0.71973,0.93202 -0.39897,2.23466 0.96227,3.90791c0.73572,0.90051 1.18527,1.72755 1.34865,2.48112c0.16338,0.75357 0.03358,1.4037 -0.38942,1.95037c-0.47139,0.60643 -1.1392,0.93668 -2.00345,0.99073c-0.83869,0.05331 -1.63845,-0.18826 -2.39928,-0.72471z"
                    data-paper-data="{&quot;glyphName&quot;:&quot;S&quot;,&quot;glyphIndex&quot;:4,&quot;word&quot;:2}"></path>
                <path
                    d="M228.61458,327.8545l-2.5121,4.65138l-5.79229,-3.12827l2.5121,-4.65138l-0.36455,-0.19688l-5.23566,9.69431l0.36455,0.19688l2.53033,-4.68514l5.79229,3.12827l-2.53033,4.68514l0.3578,0.19324l5.23566,-9.69431z"
                    data-paper-data="{&quot;glyphName&quot;:&quot;H&quot;,&quot;glyphIndex&quot;:5,&quot;lastGlyphOfWord&quot;:true,&quot;word&quot;:2}"></path>
                <path
                    d="M241.86324,333.38029l-3.23358,10.53261l0.39607,0.1216l1.56275,-5.09027l4.01207,1.23173l0.11935,-0.38874l-4.01207,-1.23173l1.42989,-4.65752l4.98759,1.53122l0.1216,-0.39607z"
                    data-paper-data="{&quot;glyphName&quot;:&quot;F&quot;,&quot;glyphIndex&quot;:6,&quot;firstGlyphOfWord&quot;:true,&quot;word&quot;:3}"></path>
                <path d="M253.0067,336.45316l-0.40474,-0.08855l-2.35487,10.7632l0.40474,0.08855z"
                    data-paper-data="{&quot;glyphName&quot;:&quot;I&quot;,&quot;glyphIndex&quot;:7,&quot;word&quot;:3}"></path>
                <path
                    d="M258.76033,337.53257l-1.42501,10.92526l5.58436,0.72838l0.05359,-0.41084l-5.17352,-0.67479l1.37142,-10.51442z"
                    data-paper-data="{&quot;glyphName&quot;:&quot;L&quot;,&quot;glyphIndex&quot;:8,&quot;word&quot;:3}"></path>
                <path
                    d="M269.65308,338.66991l-0.26765,11.01455l5.63,0.1368l0.01006,-0.4142l-5.2158,-0.12674l0.11928,-4.90899l4.19565,0.10195l0.00988,-0.40653l-4.19565,-0.10195l0.11835,-4.87064l5.2158,0.12674l0.01006,-0.4142z"
                    data-paper-data="{&quot;glyphName&quot;:&quot;E&quot;,&quot;glyphIndex&quot;:9,&quot;lastGlyphOfWord&quot;:true,&quot;word&quot;:3}"></path>
                <path
                    d="M295.95257,347.94712c-1.5278,0.26055 -2.92366,-0.0592 -4.18758,-0.95926c-1.2681,-0.89416 -2.03243,-2.10514 -2.29298,-3.63294c-0.26055,-1.5278 0.0592,-2.92366 0.95926,-4.18758c0.89416,-1.2681 2.10514,-2.03243 3.63294,-2.29298c0.75129,-0.12813 1.49475,-0.10444 2.23037,0.07106l-0.09563,0.39769c-0.6809,-0.15889 -1.36926,-0.179 -2.06509,-0.06033c-1.41687,0.24163 -2.53893,0.94929 -3.36617,2.12295c-0.83314,1.16949 -1.1289,2.46266 -0.88726,3.87953c0.24077,1.41183 0.94843,2.53388 2.12295,3.36617c1.16949,0.83314 2.46266,1.1289 3.87953,0.88726c0.65549,-0.11179 1.26304,-0.33734 1.82265,-0.67665l-0.78553,-4.60609l-2.72281,0.46435l-0.06965,-0.40842l3.13123,-0.534l0.90162,5.28679l-0.11955,0.07487c-0.63587,0.4094 -1.33197,0.67859 -2.08831,0.80758z"
                    data-paper-data="{&quot;glyphName&quot;:&quot;G&quot;,&quot;glyphIndex&quot;:10,&quot;firstGlyphOfWord&quot;:true,&quot;word&quot;:4}"></path>
                <path
                    d="M301.93872,335.25571l3.14752,10.55864l5.39697,-1.60883l-0.11836,-0.39705l-4.99991,1.49047l-1.4028,-4.7058l4.02199,-1.19895l-0.11617,-0.3897l-4.02199,1.19895l-1.39184,-4.66904l4.99991,-1.49047l-0.11836,-0.39705z"
                    data-paper-data="{&quot;glyphName&quot;:&quot;E&quot;,&quot;glyphIndex&quot;:11,&quot;word&quot;:4}"></path>
                <path
                    d="M318.79633,329.10413l4.17227,9.75647l-10.0064,-7.26155l-0.59258,0.25341l4.33216,10.13036l0.38095,-0.16291l-4.16925,-9.74941l9.99633,7.25752l0.59964,-0.25643l-4.33216,-10.13036z"
                    data-paper-data="{&quot;glyphName&quot;:&quot;N&quot;,&quot;glyphIndex&quot;:12,&quot;word&quot;:4}"></path>
                <path
                    d="M324.19011,326.41335l5.48307,9.55656l4.88476,-2.80263l-0.20619,-0.35937l-4.52539,2.59644l-2.44371,-4.25919l3.64028,-2.08861l-0.20237,-0.35271l-3.64028,2.08861l-2.42462,-4.22592l4.52539,-2.59644l-0.20619,-0.35937z"
                    data-paper-data="{&quot;glyphName&quot;:&quot;E&quot;,&quot;glyphIndex&quot;:13,&quot;word&quot;:4}"></path>
                <path
                    d="M334.14193,320.80106l2.79043,-2.0463c0.54447,-0.39928 1.15274,-0.54722 1.82481,-0.44382c0.67207,0.1034 1.20925,0.4294 1.61155,0.978c0.4023,0.5486 0.55024,1.15687 0.44382,1.82481c-0.1034,0.67207 -0.42733,1.20774 -0.97181,1.60702l-2.79043,2.0463zM345.67772,325.49058l-5.34119,-2.63865c0.5332,-0.4925 0.83541,-1.10104 0.90664,-1.82563c0.07232,-0.73174 -0.10779,-1.39253 -0.54034,-1.98238c-0.46885,-0.63934 -1.0965,-1.01952 -1.88296,-1.14051c-0.78646,-0.121 -1.4973,0.05142 -2.13252,0.51724l-3.12454,2.29131l6.51549,8.88483l0.33411,-0.24501l-3.11709,-4.25061l2.68525,-1.96917l5.32592,2.63081z"
                    data-paper-data="{&quot;glyphName&quot;:&quot;R&quot;,&quot;glyphIndex&quot;:14,&quot;word&quot;:4}"></path>
                <path
                    d="M347.93603,308.83706l1.67375,8.94231l-0.02809,0.02613l0.04703,0.05056l0.70943,3.79335l0.35957,-0.33442l-0.63722,-3.389l3.65748,-3.40165l1.9856,2.13494l0.29777,-0.27694l-7.50349,-8.06781zM348.34117,308.74317l5.09464,5.47779l-3.46646,3.22399z"
                    data-paper-data="{&quot;glyphName&quot;:&quot;A&quot;,&quot;glyphIndex&quot;:15,&quot;word&quot;:4}"></path>
                <path
                    d="M352.12685,304.48749l0.31722,0.26652l2.1815,-2.59649l8.11844,6.8209l0.26652,-0.31722l-8.11844,-6.8209l2.1815,-2.59649l-0.31722,-0.26652z"
                    data-paper-data="{&quot;glyphName&quot;:&quot;T&quot;,&quot;glyphIndex&quot;:16,&quot;word&quot;:4}"></path>
                <path
                    d="M361.7119,292.36877c-0.79291,1.19884 -1.04421,2.50138 -0.75391,3.90764c0.28321,1.4077 1.02423,2.508 2.22307,3.30091c1.19457,0.79008 2.49712,1.04139 3.90764,0.75391c1.4077,-0.28321 2.508,-1.02423 3.30091,-2.22307c0.79291,-1.19884 1.04421,-2.50138 0.75391,-3.90764c-0.28747,-1.41052 -1.0285,-2.51082 -2.22307,-3.30091c-1.19884,-0.79291 -2.50138,-1.04421 -3.90764,-0.75391c-1.4077,0.28321 -2.508,1.02423 -3.30091,2.22307zM370.73518,298.33672c-0.85498,1.2927 -2.04303,2.0922 -3.56414,2.39853c-1.51966,0.31341 -2.92584,0.04262 -4.21854,-0.81236c-1.2927,-0.85498 -2.0922,-2.04303 -2.39853,-3.56414c-0.31341,-1.51966 -0.04262,-2.92584 0.81236,-4.21854c0.85498,-1.2927 2.04303,-2.0922 3.56414,-2.39853c1.51966,-0.31341 2.92584,-0.04262 4.21854,0.81236c1.2927,0.85498 2.0922,2.04303 2.39853,3.56414c0.31341,1.51966 0.04262,2.92584 -0.81236,4.21854z"
                    data-paper-data="{&quot;glyphName&quot;:&quot;O&quot;,&quot;glyphIndex&quot;:17,&quot;word&quot;:4}"></path>
                <path
                    d="M367.57369,282.85341l1.49766,-3.11944c0.29223,-0.60867 0.75911,-1.02568 1.40066,-1.25103c0.64155,-0.22535 1.26896,-0.1908 1.88224,0.10364c0.61328,0.29444 1.03029,0.76133 1.25103,1.40066c0.22535,0.64155 0.19191,1.26666 -0.10032,1.87533l-1.49766,3.11944zM379.95853,281.55656l-5.95444,0.18819c0.23837,-0.68559 0.21832,-1.36475 -0.06014,-2.03747c-0.28086,-0.67955 -0.75099,-1.17761 -1.41039,-1.49419c-0.71473,-0.34314 -1.44746,-0.38286 -2.19821,-0.11916c-0.75075,0.2637 -1.29658,0.75061 -1.63751,1.46073l-1.67698,3.49294l9.93239,4.76859l0.17932,-0.3735l-4.75178,-2.28135l1.4412,-3.00185l5.93728,-0.18791z"
                    data-paper-data="{&quot;glyphName&quot;:&quot;R&quot;,&quot;glyphIndex&quot;:18,&quot;lastGlyphOfWord&quot;:true,&quot;word&quot;:4}"></path>
            </g>
            <g data-paper-data="{&quot;isContainerElementsWrapper&quot;:true}" fill-rule="evenodd">
                <path
                    d="M275.00029,106c-17.49608,0 -34.23376,3.37936 -50.21304,10.13809c-15.43353,6.52784 -29.10143,15.74289 -41.00369,27.64514c-11.90222,11.90218 -21.11724,25.57005 -27.64508,41.00363c-4.14338,9.79592 -7.01676,19.87681 -8.62012,30.24267c0.70773,-0.12031 1.41484,-0.23949 2.12133,-0.35753c1.59696,-9.96561 4.38934,-19.66241 8.37712,-29.0906c6.4246,-15.18932 15.49425,-28.64132 27.20895,-40.356c11.71471,-11.71471 25.16671,-20.78437 40.35602,-27.20897c15.72537,-6.65121 32.1982,-9.97681 49.4185,-9.97681c17.22036,0 33.69332,3.3256 49.41889,9.97681c15.18951,6.42473 28.64152,15.49439 40.35602,27.20896c11.7158,11.71599 20.78542,25.168 27.20886,40.35601c3.98794,9.42835 6.78022,19.12522 8.37683,29.0906c0.70643,0.11811 1.41351,0.23728 2.12123,0.35753c-1.6031,-10.36567 -4.47654,-20.44656 -8.62031,-30.24267c-6.52635,-15.4326 -15.74173,-29.10044 -27.64518,-41.00363c-11.9015,-11.90193 -25.56907,-21.11698 -41.00272,-27.64515c-15.97963,-6.75873 -32.71751,-10.13809 -50.21362,-10.13809zM400.42419,265.37045c-0.67137,-0.12012 -1.34208,-0.23926 -2.01215,-0.35743c-1.60115,6.59063 -3.74381,13.05854 -6.42798,19.40568c-6.42538,15.19081 -15.495,28.64282 -27.20886,40.35602c-11.71645,11.71515 -25.16846,20.78477 -40.35602,27.20886c-15.72595,6.65134 -32.19892,9.977 -49.41889,9.977c-17.22056,0 -33.69342,-3.32599 -49.4185,-9.977c-15.19026,-6.42538 -28.64226,-15.495 -40.35602,-27.20886c-11.71483,-11.71515 -20.78448,-25.16716 -27.20895,-40.35602c-2.68449,-6.34682 -4.82725,-12.81538 -6.42827,-19.40568c-0.67156,0.11817 -1.34234,0.23732 -2.01235,0.35743c1.63011,6.73899 3.81754,13.35332 6.56229,19.84298c6.52804,15.43299 15.74306,29.10057 27.64508,41.00272c11.90172,11.90215 25.56962,21.11721 41.00369,27.64518c15.97853,6.75912 32.71621,10.13868 50.21304,10.13868c17.49521,0 34.23328,-3.37956 50.21362,-10.13868c15.4317,-6.52667 29.09927,-15.74173 41.00272,-27.64518c11.90215,-11.90085 21.11721,-25.56842 27.64518,-41.00272c2.74455,-6.48966 4.93201,-13.10399 6.56238,-19.84298zM186.82156,259.69435c1.03796,3.69901 2.31651,7.34445 3.83565,10.93633c4.63204,10.95159 11.17088,20.65005 19.61653,29.09537c8.44637,8.44662 18.14493,14.98563 29.09567,19.61702c11.33983,4.79664 23.21679,7.19447 35.63087,7.19447c12.41496,0 24.29192,-2.39783 35.63087,-7.19447c10.95191,-4.63204 20.65037,-11.17105 29.09537,-19.61702c8.44598,-8.445 14.98498,-18.14346 19.61702,-29.09537c1.51934,-3.59188 2.79714,-7.23732 3.83536,-10.93633c-0.6824,-0.08636 -1.36481,-0.17141 -2.04721,-0.25517c-0.99926,3.51591 -2.22155,6.98118 -3.6659,10.39677c-4.52815,10.70616 -10.92172,20.18905 -19.1807,28.44868c-8.25768,8.25768 -17.74057,14.65125 -28.44868,19.1807c-11.08515,4.68853 -22.69719,7.03279 -34.83614,7.03279c-12.13797,0 -23.75012,-2.34426 -34.83634,-7.03279c-10.70655,-4.5288 -20.18923,-10.92237 -28.44805,-19.1807c-8.25798,-8.25801 -14.65146,-17.74122 -19.18036,-28.44868c-1.44467,-3.41527 -2.66677,-6.88086 -3.66629,-10.39677c-0.68312,0.08376 -1.36569,0.16882 -2.0477,0.25517zM360.70025,209.09086c-0.91355,-3.01287 -1.9917,-5.98864 -3.23444,-8.92729c-4.52945,-10.70765 -10.92302,-20.19032 -19.1807,-28.448c-8.25898,-8.2582 -17.74187,-14.65164 -28.44868,-19.18031c-11.08502,-4.68863 -22.69707,-7.03295 -34.83614,-7.03295c-12.13901,0 -23.75112,2.34432 -34.83634,7.03295c-10.70726,4.5288 -20.18994,10.92224 -28.44805,19.18031c-8.25804,8.25807 -14.65149,17.74077 -19.18036,28.44809c-1.24294,2.93866 -2.32118,5.91442 -3.23464,8.9272c-0.73526,0.08402 -1.47003,0.16904 -2.20431,0.25507c0.98614,-3.3706 2.17301,-6.6962 3.56061,-9.97681c4.63211,-10.95159 11.17095,-20.65018 19.61653,-29.09576c8.44559,-8.44559 18.14415,-14.98442 29.09567,-19.61652c11.33915,-4.79604 23.21611,-7.19406 35.63087,-7.19406c12.41477,0 24.29172,2.39802 35.63087,7.19406c10.95094,4.63196 20.6494,11.1708 29.09537,19.61652c8.44598,8.44529 14.98498,18.14385 19.61702,29.09586c1.38786,3.28051 2.57411,6.60611 3.56071,9.97671c-0.73565,-0.08616 -1.47032,-0.17119 -2.20402,-0.25507z"
                    data-paper-data="{&quot;isBaseLogoContainer&quot;:true}"></path>
            </g>
        </g>
    </g>
</svg>